# xmcd
#
# Track frame offsets:
# 150
# 20325
# 39775
# 54710
# 71382
# 94217
# 112060
# 126782
# 150717
# 170370
# 185067
# 205182
#
# Disc length: 2947 seconds
#
#
# Revision: 0
# Processed by: cddbd v1.5PL3 Copyright (c) Steve Scherf et al.
# Submitted via: FreeRIP 2.30 
#
DISCID=a00b810c
DTITLE=The Bonner Brothers - Delayaed But Not Denied
DYEAR=2002
DGENRE=Gospel
TTITLE0=Here I Am (Send Me)
TTITLE1=Get In The Spirit
TTITLE2=I Just Can't Make It
TTITLE3=Jesus Took My Burdens Away
TTITLE4=Praise Him By Myself
TTITLE5=If It Wasn't For The Blood
TTITLE6=The Name Of Jesus
TTITLE7=Blessing Delayed, But Not Denied
TTITLE8=I'm Grateful
TTITLE9=Take Me To The Water
TTITLE10=Stand By Me
TTITLE11=In All My Years
EXTD=
EXTT0=
EXTT1=
EXTT2=
EXTT3=
EXTT4=
EXTT5=
EXTT6=
EXTT7=
EXTT8=
EXTT9=
EXTT10=
EXTT11=
PLAYORDER=
